<?xml version="1.0" standalone="no"?>
<!DOCTYPE svg PUBLIC "-//W3C//DTD SVG 20010904//EN"
 "http://www.w3.org/TR/2001/REC-SVG-20010904/DTD/svg10.dtd">
<svg version="1.0" xmlns="http://www.w3.org/2000/svg"
 width="336.000000pt" height="336.000000pt" viewBox="0 0 336.000000 336.000000"
 preserveAspectRatio="xMidYMid meet">
<metadata>
Created by potrace 1.11, written by Peter Selinger 2001-2013
</metadata>
<g transform="translate(0.000000,336.000000) scale(0.100000,-0.100000)"
fill="#000000" stroke="none">
<path d="M19 2858 c-30 -113 -1 -273 97 -526 100 -260 203 -410 382 -559 76
-63 198 -142 278 -179 l41 -19 -19 -70 c-10 -38 -20 -83 -24 -100 -3 -16 -16
-75 -29 -130 -13 -55 -26 -113 -29 -130 -2 -16 -7 -41 -10 -55 -16 -69 -56
-287 -70 -380 -8 -50 -20 -182 -19 -202 0 -10 1 -26 2 -35 1 -13 151 218 151
232 0 2 36 64 80 140 44 76 80 139 80 140 0 3 78 142 125 225 8 14 42 76 76
137 58 105 64 113 88 108 105 -21 387 -28 486 -12 28 4 64 10 80 13 209 34
687 187 1065 340 137 56 481 204 490 211 6 6 -152 145 -280 247 -70 55 -272
198 -315 222 -11 6 -58 34 -105 61 -439 256 -771 283 -1089 91 -206 -124 -393
-332 -555 -615 -26 -46 -49 -83 -52 -83 -10 0 -158 89 -194 116 -108 84 -217
186 -321 300 -105 116 -294 382 -356 501 -16 29 -31 53 -35 53 -4 0 -12 -19
-19 -42z m2011 -535 c101 -27 218 -92 285 -157 85 -83 125 -166 82 -166 -7 0
-23 -6 -38 -13 -41 -22 -167 -64 -290 -96 -100 -27 -169 -40 -334 -66 -60 -10
-325 -14 -325 -6 0 4 27 47 61 97 158 231 292 361 418 404 64 21 74 21 141 3z"/>
</g>
</svg>
